<svg width="106" height="900" viewBox="0 0 106 900" fill="none" xmlns="http://www.w3.org/2000/svg">
<g filter="url(#filter0_d_1_1839)">
<rect width="94" height="900" fill="white"/>
</g>
<path fill-rule="evenodd" clip-rule="evenodd" d="M60.3212 24.4391L60.5924 37.7613L57.8178 34.8443L54.3368 32.4754L60.3212 24.4391ZM56.3396 32.245L59.0578 34.5417L58.9399 28.7531L56.3396 32.245Z" fill="#181A18"/>
<path d="M32.1511 26.9458L36.6615 32.5386L32.3236 36.5017L32.1511 26.9458Z" fill="#181A18"/>
<path fill-rule="evenodd" clip-rule="evenodd" d="M64.4963 47.6073C63.5214 43.6296 62.0868 40.031 60.3109 37.8183C56.631 33.2337 51.6426 30.6747 46.4648 30.6024C41.287 30.5301 36.2291 32.9488 32.4226 37.4289C30.5856 39.5911 29.0511 43.1483 27.9655 47.0972C26.8873 51.0193 26.2915 55.1809 26.246 58.4424C26.2357 59.18 26.3466 59.6115 26.4733 59.8588C26.5814 60.0696 26.7246 60.1978 26.9616 60.2903C27.2364 60.3976 27.6579 60.4613 28.292 60.4356C28.9182 60.4102 29.6723 60.3019 30.5709 60.1287C31.4356 59.962 32.4172 59.7368 33.5011 59.4881C36.8447 58.721 41.1623 57.7305 46.0274 57.5451C51.7274 57.328 56.5825 58.686 60.1076 59.672C60.6292 59.818 61.1217 59.9557 61.5836 60.079C62.4897 60.321 63.2509 60.5011 63.8901 60.5935C64.5413 60.6877 64.9679 60.675 65.2406 60.6055C65.4629 60.5489 65.566 60.4631 65.6501 60.3203C65.7633 60.128 65.888 59.7403 65.8984 58.9961C65.9439 55.7346 65.4646 51.558 64.4963 47.6073ZM61.2272 37.0829C65.0991 41.9067 67.1674 52.2683 67.0733 59.0125C67.0201 62.8229 64.3607 62.0802 59.7759 60.7999C56.2458 59.8142 51.5743 58.5096 46.0722 58.7193C41.3302 58.8999 37.1787 59.8519 33.8465 60.616C28.2907 61.8899 25.0122 62.6417 25.0711 58.426C25.1653 51.6818 27.5221 41.382 31.5272 36.6681C35.5322 31.9542 40.9114 29.3497 46.4812 29.4275C52.051 29.5052 57.3553 32.259 61.2272 37.0829Z" fill="#181A18"/>
<path d="M40.3359 48.7006C40.3359 48.7006 36.1744 43.7472 37.4903 37.5916C38.4755 32.983 42.4891 31.2508 44.5513 30.839C45.7933 30.5909 50.6726 30.0848 50.6726 30.0848C50.6726 30.0848 49.6429 29.8298 49.3488 29.7729C41.6177 28.2768 35.2378 31.954 31.2328 36.6679C27.2277 41.3818 24.8708 51.6816 24.7767 58.4258C24.6825 65.1701 32.5401 60.3997 37.0938 59.8122C42.3813 58.4258 46.6401 56.4572 63.1422 61.7447C71.2366 64.3383 64.5476 44.0149 64.5691 44.572C64.6303 46.164 64.4368 46.9228 64.2972 48.0987C64.1658 50.5964 61.2968 53.5066 59.9393 54.4092C52.1179 59.6096 45.6343 57.2315 43.3174 56.0867C38.4312 53.6723 40.3359 48.7006 40.3359 48.7006Z" fill="#181A18"/>
<path d="M55.6719 42.3426C55.5242 43.4298 55.2065 44.4604 54.6399 45.4172C52.8881 48.3569 49.1548 49.7163 45.9563 48.5926C44.7882 48.1836 43.7955 47.5129 42.9197 46.6623C42.3855 46.0301 41.8993 45.3668 41.5731 44.5943C40.4884 42.0046 40.6907 39.5167 42.3272 37.2314C43.9054 35.0281 46.1351 34.0321 48.8144 34.1861C50.9529 34.3068 52.7198 35.2692 54.0634 36.9422C55.3264 38.5088 55.8189 40.3317 55.6719 42.3426ZM49.9121 38.4929C47.922 37.4379 45.4114 38.5764 44.9419 40.7482C44.3667 43.3868 46.6797 45.6059 49.2812 44.9084C50.652 44.5399 51.7352 43.1702 51.771 41.7597C51.7739 41.5845 51.7558 41.5269 51.5643 41.6197C51.2932 41.7431 50.9987 41.7419 50.7186 41.6359C50.2246 41.4502 49.952 41.0831 49.9131 40.557C49.8737 40.0627 50.1408 39.6079 50.6414 39.3955C50.9251 39.2786 50.8536 39.2011 50.6914 39.0522C50.4481 38.8289 50.1914 38.6467 49.9121 38.4929Z" fill="#181A18"/>
<path d="M50.7427 51.8348C47.5161 52.5893 46.2907 52.3026 44.7232 52.1655C44.4317 52.6238 48.8598 56.1055 54.7174 53.2789C60.5151 50.4813 60.1005 45.8963 59.9601 46.0494C58.0635 48.1176 57.04 48.8582 55.8696 49.5999L55.0043 50.0805L53.2346 51.0177L51.769 51.5347C51.769 51.5347 51.1827 51.732 50.7427 51.8348Z" fill="#181A18"/>
<path d="M53 106H39C37.8954 106 37 106.895 37 108V122C37 123.105 37.8954 124 39 124H53C54.1046 124 55 123.105 55 122V108C55 106.895 54.1046 106 53 106Z" stroke="#171717" stroke-width="2" stroke-linecap="round" stroke-linejoin="round"/>
<path d="M37 112H55" stroke="#171717" stroke-width="2" stroke-linecap="round" stroke-linejoin="round"/>
<path d="M43 124V112" stroke="#171717" stroke-width="2" stroke-linecap="round" stroke-linejoin="round"/>
<line x1="21" y1="142.5" x2="71" y2="142.5" stroke="#EFF2F6"/>
<path d="M51 180V178C51 176.939 50.5786 175.922 49.8284 175.172C49.0783 174.421 48.0609 174 47 174H39C37.9391 174 36.9217 174.421 36.1716 175.172C35.4214 175.922 35 176.939 35 178V180" stroke="#171717" stroke-width="2" stroke-linecap="round" stroke-linejoin="round"/>
<path d="M43 170C45.2091 170 47 168.209 47 166C47 163.791 45.2091 162 43 162C40.7909 162 39 163.791 39 166C39 168.209 40.7909 170 43 170Z" stroke="#171717" stroke-width="2" stroke-linecap="round" stroke-linejoin="round"/>
<path d="M57 179.999V177.999C56.9993 177.113 56.7044 176.252 56.1614 175.551C55.6184 174.851 54.8581 174.35 54 174.129" stroke="#171717" stroke-width="2" stroke-linecap="round" stroke-linejoin="round"/>
<path d="M50 162.129C50.8604 162.349 51.623 162.85 52.1676 163.551C52.7122 164.253 53.0078 165.116 53.0078 166.004C53.0078 166.892 52.7122 167.755 52.1676 168.457C51.623 169.158 50.8604 169.659 50 169.879" stroke="#171717" stroke-width="2" stroke-linecap="round" stroke-linejoin="round"/>
<path d="M55 221H37C35.8954 221 35 221.895 35 223V235C35 236.105 35.8954 237 37 237H55C56.1046 237 57 236.105 57 235V223C57 221.895 56.1046 221 55 221Z" stroke="#171717" stroke-width="2" stroke-linecap="round" stroke-linejoin="round"/>
<path d="M46.8182 216.25H45.1818C44.6823 216.25 44.4456 216.644 44.3784 216.783C44.2861 216.973 44.25 217.183 44.25 217.375V219.625C44.25 219.817 44.2861 220.027 44.3784 220.217C44.4456 220.356 44.6823 220.75 45.1818 220.75H46.8182C47.3177 220.75 47.5544 220.356 47.6216 220.217C47.7139 220.027 47.75 219.817 47.75 219.625V217.375C47.75 217.183 47.7139 216.973 47.6216 216.783C47.5544 216.644 47.3177 216.25 46.8182 216.25Z" stroke="#171717" stroke-width="1.5" stroke-linecap="round" stroke-linejoin="round"/>
<path d="M50.6673 234.25V233.083C50.6673 232.464 50.4215 231.871 49.9839 231.433C49.5463 230.996 48.9528 230.75 48.334 230.75H43.6673C43.0485 230.75 42.455 230.996 42.0174 231.433C41.5798 231.871 41.334 232.464 41.334 233.083V234.25" stroke="#171717" stroke-width="1.5" stroke-linecap="round" stroke-linejoin="round"/>
<path d="M45.9993 228.417C47.288 228.417 48.3327 227.372 48.3327 226.083C48.3327 224.795 47.288 223.75 45.9993 223.75C44.7107 223.75 43.666 224.795 43.666 226.083C43.666 227.372 44.7107 228.417 45.9993 228.417Z" stroke="#171717" stroke-width="1.5" stroke-linecap="round" stroke-linejoin="round"/>
<path d="M50 273V277" stroke="#171717" stroke-width="2" stroke-linecap="round" stroke-linejoin="round"/>
<path d="M42 273V277" stroke="#171717" stroke-width="2" stroke-linecap="round" stroke-linejoin="round"/>
<path d="M37 281H55" stroke="#171717" stroke-width="2" stroke-linecap="round" stroke-linejoin="round"/>
<path fill-rule="evenodd" clip-rule="evenodd" d="M38 277C38 276.448 38.4477 276 39 276H53C53.5523 276 54 276.448 54 277V286.535C55.1956 287.227 56 288.519 56 290C56 292.209 54.2091 294 52 294C50.5194 294 49.2267 293.196 48.5351 292H39C38.4477 292 38 291.552 38 291V277ZM52 294H39C37.3431 294 36 292.657 36 291V277C36 275.343 37.3431 274 39 274H53C54.6569 274 56 275.343 56 277V290V291C56 292.657 54.6569 294 53 294H52Z" fill="#171717"/>
<path d="M52 288.5V290.5L53 291.5" stroke="#171717" stroke-linecap="round"/>
<path d="M52 294C54.2091 294 56 292.209 56 290C56 287.791 54.2091 286 52 286C49.7909 286 48 287.791 48 290C48 292.209 49.7909 294 52 294Z" stroke="#171717" stroke-width="1.5" stroke-miterlimit="10" stroke-linecap="round" stroke-linejoin="round"/>
<line x1="21" y1="310.5" x2="71" y2="310.5" stroke="#EFF2F6"/>
<path d="M57 333L47.5 342.5L42.5 337.5L35 345" stroke="#171717" stroke-width="2" stroke-linecap="round" stroke-linejoin="round"/>
<path d="M51 333H57V339" stroke="#171717" stroke-width="2" stroke-linecap="round" stroke-linejoin="round"/>
<path d="M50 387H52C52.5304 387 53.0391 387.211 53.4142 387.586C53.7893 387.961 54 388.47 54 389V403C54 403.53 53.7893 404.039 53.4142 404.414C53.0391 404.789 52.5304 405 52 405H40C39.4696 405 38.9609 404.789 38.5858 404.414C38.2107 404.039 38 403.53 38 403V389C38 388.47 38.2107 387.961 38.5858 387.586C38.9609 387.211 39.4696 387 40 387H42" stroke="#171717" stroke-width="2" stroke-linecap="round" stroke-linejoin="round"/>
<path d="M49 385H43C42.4477 385 42 385.448 42 386V388C42 388.552 42.4477 389 43 389H49C49.5523 389 50 388.552 50 388V386C50 385.448 49.5523 385 49 385Z" stroke="#171717" stroke-width="2" stroke-linecap="round" stroke-linejoin="round"/>
<path fill-rule="evenodd" clip-rule="evenodd" d="M46 392C46.2761 392 46.5 392.224 46.5 392.5V401.667C46.5 401.943 46.2761 402.167 46 402.167C45.7239 402.167 45.5 401.943 45.5 401.667V392.5C45.5 392.224 45.7239 392 46 392Z" fill="#171717"/>
<path fill-rule="evenodd" clip-rule="evenodd" d="M43.5736 394.242C43.9408 393.874 44.439 393.668 44.9583 393.668H48.0833C48.3595 393.668 48.5833 393.892 48.5833 394.168C48.5833 394.444 48.3595 394.668 48.0833 394.668H44.9583C44.7042 394.668 44.4604 394.769 44.2807 394.949C44.101 395.128 44 395.372 44 395.626C44 395.88 44.101 396.124 44.2807 396.304C44.4604 396.484 44.7042 396.585 44.9583 396.585H47.0417C47.561 396.585 48.0592 396.791 48.4264 397.158C48.7937 397.525 49 398.024 49 398.543C49 399.062 48.7937 399.56 48.4264 399.928C48.0592 400.295 47.561 400.501 47.0417 400.501H43.5C43.2239 400.501 43 400.277 43 400.001C43 399.725 43.2239 399.501 43.5 399.501H47.0417C47.2958 399.501 47.5396 399.4 47.7193 399.221C47.899 399.041 48 398.797 48 398.543C48 398.289 47.899 398.045 47.7193 397.865C47.5396 397.686 47.2958 397.585 47.0417 397.585H44.9583C44.439 397.585 43.9408 397.378 43.5736 397.011C43.2063 396.644 43 396.146 43 395.626C43 395.107 43.2063 394.609 43.5736 394.242Z" fill="#171717"/>
<path d="M55.2104 454.888C54.5742 456.393 53.5792 457.718 52.3123 458.749C51.0454 459.781 49.5452 460.486 47.9428 460.803C46.3405 461.12 44.6848 461.04 43.1205 460.57C41.5563 460.1 40.131 459.253 38.9694 458.105C37.8078 456.956 36.9452 455.541 36.457 453.982C35.9689 452.423 35.87 450.769 36.169 449.163C36.468 447.557 37.1559 446.049 38.1724 444.77C39.189 443.492 40.5033 442.481 42.0004 441.828" stroke="#171717" stroke-width="2" stroke-linecap="round" stroke-linejoin="round"/>
<path d="M56 451C56 449.687 55.7413 448.386 55.2388 447.173C54.7362 445.96 53.9997 444.858 53.0711 443.929C52.1425 443 51.0401 442.264 49.8268 441.761C48.6136 441.259 47.3132 441 46 441V451H56Z" stroke="#171717" stroke-width="2" stroke-linecap="round" stroke-linejoin="round"/>
<path d="M52.4265 512.24L50.7603 510.574C50.6828 510.496 50.5907 510.434 50.4892 510.392C50.3876 510.349 50.2787 510.328 50.1688 510.328C50.0588 510.328 49.9499 510.349 49.8484 510.392C49.7468 510.434 49.6547 510.496 49.5772 510.574L47.911 512.24C47.8333 512.318 47.7717 512.41 47.7296 512.512C47.6876 512.613 47.666 512.722 47.666 512.832C47.666 512.942 47.6876 513.05 47.7296 513.152C47.7717 513.253 47.8333 513.346 47.911 513.423C47.9887 513.501 48.0809 513.563 48.1824 513.605C48.2839 513.647 48.3926 513.668 48.5025 513.668C48.6124 513.668 48.7211 513.647 48.8226 513.605C48.9241 513.563 49.0163 513.501 49.094 513.423L49.3356 513.173V516.164C49.3356 516.385 49.4234 516.597 49.5796 516.753C49.7359 516.91 49.9478 516.997 50.1688 516.997C50.3897 516.997 50.6016 516.91 50.7579 516.753C50.9141 516.597 51.0019 516.385 51.0019 516.164V513.173L51.2435 513.423C51.321 513.501 51.4131 513.563 51.5146 513.606C51.6161 513.648 51.725 513.67 51.835 513.67C51.945 513.67 52.0539 513.648 52.1554 513.606C52.257 513.563 52.3491 513.501 52.4265 513.423C52.5046 513.346 52.5666 513.254 52.6089 513.152C52.6512 513.051 52.673 512.942 52.673 512.832C52.673 512.722 52.6512 512.613 52.6089 512.511C52.5666 512.41 52.5046 512.318 52.4265 512.24Z" fill="black"/>
<path d="M57.4254 513.906C57.348 513.828 57.2558 513.766 57.1543 513.723C57.0528 513.681 56.9439 513.659 56.8339 513.659C56.7239 513.659 56.615 513.681 56.5135 513.723C56.412 513.766 56.3198 513.828 56.2424 513.906L56.0007 514.156V511.165C56.0007 510.944 55.913 510.732 55.7567 510.576C55.6005 510.419 55.3886 510.332 55.1676 510.332C54.9467 510.332 54.7347 510.419 54.5785 510.576C54.4223 510.732 54.3345 510.944 54.3345 511.165V514.156L54.0929 513.906C53.936 513.749 53.7232 513.661 53.5014 513.661C53.2795 513.661 53.0667 513.749 52.9098 513.906C52.7529 514.063 52.6648 514.275 52.6648 514.497C52.6648 514.719 52.7529 514.932 52.9098 515.089L54.5761 516.755C54.6535 516.833 54.7457 516.895 54.8472 516.937C54.9487 516.98 55.0576 517.002 55.1676 517.002C55.2776 517.002 55.3865 516.98 55.488 516.937C55.5895 516.895 55.6817 516.833 55.7591 516.755L57.4254 515.089C57.5035 515.011 57.5655 514.919 57.6078 514.818C57.6501 514.716 57.6718 514.607 57.6718 514.497C57.6718 514.387 57.6501 514.278 57.6078 514.177C57.5655 514.075 57.5035 513.983 57.4254 513.906Z" fill="black"/>
<path d="M46.602 515.012C45.8654 515.225 45.1024 515.331 44.3358 515.329C42.6881 515.329 41.0773 514.84 39.7072 513.925C38.3371 513.009 37.2693 511.708 36.6387 510.186C36.0081 508.663 35.8431 506.988 36.1646 505.372C36.4861 503.756 37.2795 502.272 38.4447 501.106C39.6099 499.941 41.0944 499.148 42.7105 498.826C44.3266 498.505 46.0017 498.67 47.5241 499.3C49.0464 499.931 50.3476 500.999 51.2631 502.369C52.1785 503.739 52.6672 505.35 52.6672 506.998C52.6697 507.884 52.529 508.764 52.2506 509.605C52.2156 509.709 52.2014 509.819 52.2088 509.928C52.2162 510.038 52.2452 510.145 52.2939 510.243C52.3923 510.441 52.5656 510.593 52.7755 510.663C52.9854 510.734 53.2148 510.718 53.4132 510.62C53.6116 510.522 53.7628 510.348 53.8335 510.138C54.4975 508.132 54.5086 505.967 53.8652 503.954C53.2219 501.941 51.9571 500.184 50.2527 498.934C48.5482 497.685 46.4917 497.008 44.3784 497C42.2651 496.992 40.2037 497.655 38.4902 498.892C36.7768 500.129 35.4993 501.877 34.8414 503.885C34.1835 505.893 34.1789 508.059 34.8283 510.07C35.4776 512.081 36.7476 513.834 38.4558 515.079C40.164 516.323 42.2225 516.994 44.3358 516.995C45.2605 517.001 46.181 516.871 47.0685 516.612C47.2806 516.55 47.4595 516.406 47.5657 516.213C47.672 516.019 47.6969 515.791 47.635 515.579C47.5732 515.367 47.4296 515.188 47.2358 515.082C47.0421 514.975 46.8141 514.95 46.602 515.012Z" fill="black"/>
<path d="M46.8341 504.497C47.0551 504.497 47.267 504.409 47.4232 504.253C47.5795 504.097 47.6672 503.885 47.6672 503.664C47.6672 503.443 47.5795 503.231 47.4232 503.075C47.267 502.918 47.0551 502.831 46.8341 502.831H45.1678V501.997C45.1678 501.777 45.0801 501.565 44.9238 501.408C44.7676 501.252 44.5557 501.164 44.3347 501.164C44.1137 501.164 43.9018 501.252 43.7456 501.408C43.5894 501.565 43.5016 501.777 43.5016 501.997V502.831H42.6684C42.2265 502.831 41.8027 503.006 41.4902 503.319C41.1777 503.631 41.0022 504.055 41.0022 504.497V506.163C41.0022 506.605 41.1777 507.029 41.4902 507.341C41.8027 507.654 42.2265 507.829 42.6684 507.829H46.001V509.496H41.8353C41.6144 509.496 41.4024 509.583 41.2462 509.74C41.09 509.896 41.0022 510.108 41.0022 510.329C41.0022 510.55 41.09 510.762 41.2462 510.918C41.4024 511.074 41.6144 511.162 41.8353 511.162H43.5016V511.995C43.5016 512.216 43.5894 512.428 43.7456 512.584C43.9018 512.74 44.1137 512.828 44.3347 512.828C44.5557 512.828 44.7676 512.74 44.9238 512.584C45.0801 512.428 45.1678 512.216 45.1678 511.995V511.162H46.001C46.4429 511.162 46.8667 510.986 47.1792 510.674C47.4917 510.361 47.6672 509.938 47.6672 509.496V507.829C47.6672 507.387 47.4917 506.964 47.1792 506.651C46.8667 506.339 46.4429 506.163 46.001 506.163H42.6684V504.497H46.8341Z" fill="black"/>
<path d="M50 553V557" stroke="#171717" stroke-width="2" stroke-linecap="round" stroke-linejoin="round"/>
<path d="M42 553V557" stroke="#171717" stroke-width="2" stroke-linecap="round" stroke-linejoin="round"/>
<path fill-rule="evenodd" clip-rule="evenodd" d="M39 556C38.4477 556 38 556.448 38 557V571C38 571.552 38.4477 572 39 572H53C53.5523 572 54 571.552 54 571V557C54 556.448 53.5523 556 53 556H39ZM36 557C36 555.343 37.3431 554 39 554H53C54.6569 554 56 555.343 56 557V571C56 572.657 54.6569 574 53 574H39C37.3431 574 36 572.657 36 571V557Z" fill="#171717"/>
<g clip-path="url(#clip0_1_1839)">
<path d="M46 559.415V568.582" stroke="#171717" stroke-linecap="round" stroke-linejoin="round"/>
<path d="M48.0833 561.085H44.9583C44.5716 561.085 44.2006 561.238 43.9271 561.512C43.6536 561.785 43.5 562.156 43.5 562.543C43.5 562.93 43.6536 563.301 43.9271 563.574C44.2006 563.848 44.5716 564.001 44.9583 564.001H47.0417C47.4284 564.001 47.7994 564.155 48.0729 564.428C48.3464 564.702 48.5 565.073 48.5 565.46C48.5 565.846 48.3464 566.217 48.0729 566.491C47.7994 566.764 47.4284 566.918 47.0417 566.918H43.5" stroke="#171717" stroke-linecap="round" stroke-linejoin="round"/>
</g>
<line x1="21" y1="590.5" x2="71" y2="590.5" stroke="#EFF2F6"/>
<g clip-path="url(#clip1_1_1839)">
<path d="M46 623C45.2089 623 44.4355 622.765 43.7777 622.326C43.1199 621.886 42.6072 621.262 42.3045 620.531C42.0017 619.8 41.9225 618.996 42.0769 618.22C42.2312 617.444 42.6122 616.731 43.1716 616.172C43.731 615.612 44.4437 615.231 45.2196 615.077C45.9956 614.923 46.7998 615.002 47.5307 615.304C48.2616 615.607 48.8864 616.12 49.3259 616.778C49.7654 617.436 50 618.209 50 619C50 620.061 49.5786 621.078 48.8284 621.828C48.0783 622.579 47.0609 623 46 623ZM46 617C45.6044 617 45.2178 617.117 44.8889 617.337C44.56 617.557 44.3036 617.869 44.1522 618.235C44.0009 618.6 43.9613 619.002 44.0384 619.39C44.1156 619.778 44.3061 620.135 44.5858 620.414C44.8655 620.694 45.2219 620.884 45.6098 620.962C45.9978 621.039 46.3999 620.999 46.7654 620.848C47.1308 620.696 47.4432 620.44 47.6629 620.111C47.8827 619.782 48 619.396 48 619C48 618.47 47.7893 617.961 47.4142 617.586C47.0391 617.211 46.5304 617 46 617ZM52 630C52 628.409 51.3679 626.883 50.2426 625.757C49.1174 624.632 47.5913 624 46 624C44.4087 624 42.8826 624.632 41.7574 625.757C40.6321 626.883 40 628.409 40 630C40 630.265 40.1054 630.52 40.2929 630.707C40.4804 630.895 40.7348 631 41 631C41.2652 631 41.5196 630.895 41.7071 630.707C41.8946 630.52 42 630.265 42 630C42 628.939 42.4214 627.922 43.1716 627.172C43.9217 626.421 44.9391 626 46 626C47.0609 626 48.0783 626.421 48.8284 627.172C49.5786 627.922 50 628.939 50 630C50 630.265 50.1054 630.52 50.2929 630.707C50.4804 630.895 50.7348 631 51 631C51.2652 631 51.5196 630.895 51.7071 630.707C51.8946 630.52 52 630.265 52 630ZM52 615C51.2089 615 50.4355 614.765 49.7777 614.326C49.1199 613.886 48.6072 613.262 48.3045 612.531C48.0017 611.8 47.9225 610.996 48.0769 610.22C48.2312 609.444 48.6122 608.731 49.1716 608.172C49.731 607.612 50.4437 607.231 51.2196 607.077C51.9956 606.923 52.7998 607.002 53.5307 607.304C54.2616 607.607 54.8864 608.12 55.3259 608.778C55.7654 609.436 56 610.209 56 611C56 612.061 55.5786 613.078 54.8284 613.828C54.0783 614.579 53.0609 615 52 615ZM52 609C51.6044 609 51.2178 609.117 50.8889 609.337C50.56 609.557 50.3036 609.869 50.1522 610.235C50.0009 610.6 49.9613 611.002 50.0384 611.39C50.1156 611.778 50.3061 612.135 50.5858 612.414C50.8655 612.694 51.2219 612.884 51.6098 612.962C51.9978 613.039 52.3999 612.999 52.7654 612.848C53.1308 612.696 53.4432 612.44 53.6629 612.111C53.8827 611.782 54 611.396 54 611C54 610.47 53.7893 609.961 53.4142 609.586C53.0391 609.211 52.5304 609 52 609ZM58 622C57.9984 620.409 57.3658 618.884 56.2409 617.759C55.116 616.634 53.5908 616.002 52 616C51.7348 616 51.4804 616.105 51.2929 616.293C51.1054 616.48 51 616.735 51 617C51 617.265 51.1054 617.52 51.2929 617.707C51.4804 617.895 51.7348 618 52 618C53.0609 618 54.0783 618.421 54.8284 619.172C55.5786 619.922 56 620.939 56 622C56 622.265 56.1054 622.52 56.2929 622.707C56.4804 622.895 56.7348 623 57 623C57.2652 623 57.5196 622.895 57.7071 622.707C57.8946 622.52 58 622.265 58 622ZM40 615C39.2089 615 38.4355 614.765 37.7777 614.326C37.1199 613.886 36.6072 613.262 36.3045 612.531C36.0017 611.8 35.9225 610.996 36.0769 610.22C36.2312 609.444 36.6122 608.731 37.1716 608.172C37.731 607.612 38.4437 607.231 39.2196 607.077C39.9956 606.923 40.7998 607.002 41.5307 607.304C42.2616 607.607 42.8864 608.12 43.3259 608.778C43.7654 609.436 44 610.209 44 611C44 612.061 43.5786 613.078 42.8284 613.828C42.0783 614.579 41.0609 615 40 615ZM40 609C39.6044 609 39.2178 609.117 38.8889 609.337C38.56 609.557 38.3036 609.869 38.1522 610.235C38.0009 610.6 37.9613 611.002 38.0384 611.39C38.1156 611.778 38.3061 612.135 38.5858 612.414C38.8655 612.694 39.2219 612.884 39.6098 612.962C39.9978 613.039 40.3999 612.999 40.7654 612.848C41.1308 612.696 41.4432 612.44 41.6629 612.111C41.8827 611.782 42 611.396 42 611C42 610.47 41.7893 609.961 41.4142 609.586C41.0391 609.211 40.5304 609 40 609ZM36 622C36 620.939 36.4214 619.922 37.1716 619.172C37.9217 618.421 38.9391 618 40 618C40.2652 618 40.5196 617.895 40.7071 617.707C40.8946 617.52 41 617.265 41 617C41 616.735 40.8946 616.48 40.7071 616.293C40.5196 616.105 40.2652 616 40 616C38.4092 616.002 36.884 616.634 35.7591 617.759C34.6342 618.884 34.0016 620.409 34 622C34 622.265 34.1054 622.52 34.2929 622.707C34.4804 622.895 34.7348 623 35 623C35.2652 623 35.5196 622.895 35.7071 622.707C35.8946 622.52 36 622.265 36 622Z" fill="#171717"/>
</g>
<path d="M46 685C51.5228 685 56 680.523 56 675C56 669.477 51.5228 665 46 665C40.4772 665 36 669.477 36 675C36 680.523 40.4772 685 46 685Z" stroke="#171717" stroke-width="2" stroke-linecap="round" stroke-linejoin="round"/>
<path d="M36 675H56" stroke="#171717" stroke-width="2" stroke-linecap="round" stroke-linejoin="round"/>
<path d="M46 665C48.5013 667.738 49.9228 671.292 50 675C49.9228 678.708 48.5013 682.262 46 685C43.4987 682.262 42.0772 678.708 42 675C42.0772 671.292 43.4987 667.738 46 665Z" stroke="#171717" stroke-width="2" stroke-linecap="round" stroke-linejoin="round"/>
<path d="M37 737V731C37 728.613 37.9482 726.324 39.636 724.636C41.3239 722.948 43.6131 722 46 722C48.3869 722 50.6761 722.948 52.364 724.636C54.0518 726.324 55 728.613 55 731V737" stroke="#171717" stroke-width="2" stroke-linecap="round" stroke-linejoin="round"/>
<path d="M55 738C55 738.53 54.7893 739.039 54.4142 739.414C54.0391 739.789 53.5304 740 53 740H52C51.4696 740 50.9609 739.789 50.5858 739.414C50.2107 739.039 50 738.53 50 738V735C50 734.47 50.2107 733.961 50.5858 733.586C50.9609 733.211 51.4696 733 52 733H55V738ZM37 738C37 738.53 37.2107 739.039 37.5858 739.414C37.9609 739.789 38.4696 740 39 740H40C40.5304 740 41.0391 739.789 41.4142 739.414C41.7893 739.039 42 738.53 42 738V735C42 734.47 41.7893 733.961 41.4142 733.586C41.0391 733.211 40.5304 733 40 733H37V738Z" stroke="#171717" stroke-width="2" stroke-linecap="round" stroke-linejoin="round"/>
<rect x="106" y="98" width="24" height="24" rx="12" transform="rotate(-180 106 98)" fill="#EAEAEA"/>
<path d="M93 82L97 86L93 90" stroke="black" stroke-width="2" stroke-linecap="round" stroke-linejoin="round"/>
<defs>
<filter id="filter0_d_1_1839" x="-1" y="-1" width="102" height="908" filterUnits="userSpaceOnUse" color-interpolation-filters="sRGB">
<feFlood flood-opacity="0" result="BackgroundImageFix"/>
<feColorMatrix in="SourceAlpha" type="matrix" values="0 0 0 0 0 0 0 0 0 0 0 0 0 0 0 0 0 0 127 0" result="hardAlpha"/>
<feMorphology radius="1" operator="erode" in="SourceAlpha" result="effect1_dropShadow_1_1839"/>
<feOffset dx="3" dy="3"/>
<feGaussianBlur stdDeviation="2.5"/>
<feComposite in2="hardAlpha" operator="out"/>
<feColorMatrix type="matrix" values="0 0 0 0 0 0 0 0 0 0 0 0 0 0 0 0 0 0 0.05 0"/>
<feBlend mode="normal" in2="BackgroundImageFix" result="effect1_dropShadow_1_1839"/>
<feBlend mode="normal" in="SourceGraphic" in2="effect1_dropShadow_1_1839" result="shape"/>
</filter>
<clipPath id="clip0_1_1839">
<rect width="10" height="10" fill="white" transform="translate(41 559)"/>
</clipPath>
<clipPath id="clip1_1_1839">
<rect width="24" height="24" fill="white" transform="translate(34 607)"/>
</clipPath>
</defs>
</svg>
